<svg width="1801" height="1080" viewBox="0 0 1801 1080" fill="none" xmlns="http://www.w3.org/2000/svg">
<rect width="1801" height="1080" fill="white"/>
<path d="M94.6154 1020H61.1837H60.0001V1018.83V985.714" stroke="black" stroke-width="3"/>
<path d="M1706.38 1020H1739.82H1741V1018.83V985.714" stroke="black" stroke-width="3"/>
<path d="M94.6154 60H61.1836H60V61.1723V94.2857" stroke="black" stroke-width="3"/>
<path d="M1706.38 60H1739.82H1741V61.1723V94.2857" stroke="black" stroke-width="3"/>
<path d="M1741 569.388V540" stroke="black" stroke-width="3"/>
<path d="M1741 510.612V538.995V540H1739.82H1706.38" stroke="black" stroke-width="3"/>
<path d="M60 510.612L60 540" stroke="black" stroke-width="3"/>
<path d="M60 569.388V541.005V540H61.1836H94.6154" stroke="black" stroke-width="3"/>
<text fill="black" xml:space="preserve" style="white-space: pre" font-family="JetBrains Mono" font-size="64" font-weight="300" letter-spacing="-0.02em"><tspan x="959" y="588.399">2 25</tspan></text>
<text fill="black" xml:space="preserve" style="white-space: pre" font-family="JetBrains Mono" font-size="35" font-weight="200" letter-spacing="-0.02em"><tspan x="959" y="472.6">R&#xe9;sum&#xe9;+</tspan></text>
<text fill="black" xml:space="preserve" style="white-space: pre" font-family="JetBrains Mono" font-size="64" font-weight="bold" letter-spacing="-0.02em"><tspan x="959" y="532.481">P RTFOLIO</tspan></text>
<path d="M1024.03 589.689C1026.28 588.522 1028.02 586.878 1029.26 584.759C1030.49 582.639 1031.11 580.151 1031.11 577.296V497.145C1031.11 494.291 1030.49 491.804 1029.26 489.684C1028.02 487.565 1026.29 485.921 1024.07 484.752C1021.84 483.585 1019.17 483 1016.05 483C1013.02 483 1010.38 483.585 1008.1 484.752C1005.83 485.921 1004.08 487.565 1002.85 489.684C1001.62 491.804 1001 494.291 1001 497.145V577.296C1001 580.151 1001.62 582.639 1002.85 584.759C1004.08 586.878 1005.82 588.522 1008.07 589.689C1010.32 590.857 1012.98 591.442 1016.05 591.442C1019.12 591.442 1021.78 590.857 1024.03 589.689ZM1010.67 582.487C1009.33 581.189 1008.66 579.459 1008.66 577.296V497.145C1008.66 494.984 1009.33 493.253 1010.67 491.956C1012.01 490.657 1013.8 490.009 1016.05 490.009C1018.3 490.009 1020.1 490.657 1021.44 491.956C1022.78 493.253 1023.45 494.984 1023.45 497.145V577.296C1023.45 579.459 1022.78 581.189 1021.44 582.487C1020.1 583.784 1018.3 584.433 1016.05 584.433C1013.8 584.433 1012.01 583.784 1010.67 582.487Z" fill="#D2232A"/>
<path d="M1019.17 512.419C1019.95 511.598 1020.33 510.517 1020.33 509.175C1020.33 507.921 1019.95 506.904 1019.17 506.126C1018.39 505.347 1017.35 504.957 1016.05 504.957C1014.76 504.957 1013.72 505.347 1012.94 506.126C1012.16 506.904 1011.77 507.942 1011.77 509.239C1011.77 510.581 1012.17 511.652 1012.97 512.451C1013.77 513.253 1014.8 513.652 1016.05 513.652C1017.35 513.652 1018.39 513.242 1019.17 512.419Z" fill="black"/>
<g clip-path="url(#clip0_2_2)">
<text fill="black" xml:space="preserve" style="white-space: pre" font-family="JetBrains Mono" font-size="24" font-weight="100" letter-spacing="0.4em"><tspan x="1138" y="187.64">CONTACT</tspan></text>
<text fill="black" xml:space="preserve" style="white-space: pre" font-family="JetBrains Mono" font-size="24" font-weight="100" letter-spacing="0.4em"><tspan x="934.333" y="187.64">ABOUT</tspan></text>
<text fill="black" xml:space="preserve" style="white-space: pre" font-family="JetBrains Mono" font-size="24" font-weight="100" letter-spacing="0.4em"><tspan x="658.667" y="187.64">RESEARCH</tspan></text>
<text fill="black" xml:space="preserve" style="white-space: pre" font-family="JetBrains Mono" font-size="24" font-weight="100" letter-spacing="0.4em"><tspan x="479" y="187.64">HOME</tspan></text>
</g>
<text fill="black" xml:space="preserve" style="white-space: pre" font-family="JetBrains Mono" font-size="40" font-weight="500" letter-spacing="-0.02em"><tspan x="570.987" y="489.9">SAEID SORKHI</tspan></text>
<text fill="#D2232A" xml:space="preserve" style="white-space: pre" font-family="JetBrains Mono" font-size="24" font-weight="300" letter-spacing="0em"><tspan x="432.672" y="526.64">RESEARCHER &#38; DIGITAL DESIGNER</tspan></text>
<text fill="black" xml:space="preserve" style="white-space: pre" font-family="JetBrains Mono" font-size="24" font-weight="100" letter-spacing="-0.02em"><tspan x="501.754" y="558.64">M.A. VISUAL COMMUNICATION</tspan></text>
<text fill="black" xml:space="preserve" style="white-space: pre" font-family="JetBrains Mono" font-size="24" font-weight="100" letter-spacing="-0.02em"><tspan x="640.861" y="590.64">B. ARCHITECTURE</tspan></text>
<path d="M902 597.999L902.938 450" stroke="black"/>
<defs>
<clipPath id="clip0_2_2">
<rect width="843" height="32" fill="white" transform="translate(479 163)"/>
</clipPath>
</defs>
</svg>
