<svg width="1801" height="1080" viewBox="0 0 1801 1080" fill="none" xmlns="http://www.w3.org/2000/svg">
<rect width="1801" height="1080" fill="white"/>
<path d="M94.6154 1020H61.1837H60.0001V1018.83V985.714" stroke="black" stroke-width="3"/>
<path d="M1706.38 1020H1739.82H1741V1018.83V985.714" stroke="black" stroke-width="3"/>
<path d="M94.6154 60H61.1836H60V61.1723V94.2857" stroke="black" stroke-width="3"/>
<path d="M1706.38 60H1739.82H1741V61.1723V94.2857" stroke="black" stroke-width="3"/>
<path d="M1741 569.388V540" stroke="black" stroke-width="3"/>
<path d="M1741 510.612V538.995V540H1739.82H1706.38" stroke="black" stroke-width="3"/>
<path d="M60 510.612L60 540" stroke="black" stroke-width="3"/>
<path d="M60 569.388V541.005V540H61.1836H94.6154" stroke="black" stroke-width="3"/>
<path d="M964.952 588.359V583.111L979.352 568.007C981.912 565.319 983.789 562.887 984.984 560.711C986.179 558.535 986.776 556.423 986.776 554.375C986.776 551.644 985.987 549.489 984.408 547.911C982.872 546.289 980.76 545.479 978.072 545.479C975.256 545.479 973.016 546.289 971.352 547.911C969.731 549.532 968.92 551.751 968.92 554.567H963.8C963.885 551.793 964.525 549.383 965.72 547.335C966.915 545.287 968.557 543.729 970.648 542.663C972.781 541.553 975.256 540.999 978.072 540.999C980.888 540.999 983.32 541.532 985.368 542.599C987.459 543.665 989.059 545.201 990.168 547.207C991.277 549.169 991.832 551.537 991.832 554.311C991.832 556.999 991.107 559.687 989.656 562.375C988.205 565.063 985.88 568.071 982.68 571.399L970.52 583.751H992.728V588.359H964.952ZM1039.14 588.359V583.111L1053.54 568.007C1056.1 565.319 1057.98 562.887 1059.17 560.711C1060.37 558.535 1060.97 556.423 1060.97 554.375C1060.97 551.644 1060.18 549.489 1058.6 547.911C1057.06 546.289 1054.95 545.479 1052.26 545.479C1049.45 545.479 1047.21 546.289 1045.54 547.911C1043.92 549.532 1043.11 551.751 1043.11 554.567H1037.99C1038.08 551.793 1038.72 549.383 1039.91 547.335C1041.1 545.287 1042.75 543.729 1044.84 542.663C1046.97 541.553 1049.45 540.999 1052.26 540.999C1055.08 540.999 1057.51 541.532 1059.56 542.599C1061.65 543.665 1063.25 545.201 1064.36 547.207C1065.47 549.169 1066.02 551.537 1066.02 554.311C1066.02 556.999 1065.3 559.687 1063.85 562.375C1062.4 565.063 1060.07 568.071 1056.87 571.399L1044.71 583.751H1066.92V588.359H1039.14ZM1089.42 588.999C1085.62 588.999 1082.53 588.017 1080.14 586.055C1077.75 584.049 1076.37 581.361 1075.98 577.991H1081.04C1081.25 580.039 1082.08 581.639 1083.53 582.791C1084.98 583.9 1086.95 584.455 1089.42 584.455C1092.19 584.455 1094.31 583.687 1095.76 582.151C1097.21 580.572 1097.93 578.353 1097.93 575.495V571.015C1097.93 568.199 1097.21 566.023 1095.76 564.487C1094.35 562.908 1092.26 562.119 1089.49 562.119C1087.69 562.119 1086.14 562.609 1084.81 563.591C1083.49 564.529 1082.55 565.831 1082 567.495H1076.94L1077.26 541.639H1101.45V546.247H1082.19L1082 562.887H1083.66L1081.93 564.679C1081.93 562.503 1082.77 560.796 1084.43 559.559C1086.09 558.279 1088.31 557.639 1091.09 557.639C1094.88 557.596 1097.81 558.769 1099.85 561.159C1101.94 563.505 1102.99 566.791 1102.99 571.015V575.495C1102.99 579.633 1101.79 582.919 1099.41 585.351C1097.02 587.783 1093.69 588.999 1089.42 588.999Z" fill="black"/>
<path d="M962.605 473V447.45H970.06C971.577 447.45 972.895 447.753 974.015 448.36C975.135 448.943 975.998 449.772 976.605 450.845C977.212 451.918 977.515 453.178 977.515 454.625C977.515 456.422 977.025 457.938 976.045 459.175C975.065 460.412 973.723 461.205 972.02 461.555L977.76 473H975.03L969.605 461.73H964.915V473H962.605ZM964.915 459.665H970.06C971.6 459.665 972.837 459.198 973.77 458.265C974.703 457.332 975.17 456.107 975.17 454.59C975.17 453.05 974.703 451.825 973.77 450.915C972.837 450.005 971.6 449.55 970.06 449.55H964.915V459.665ZM989.821 473.35C988.351 473.35 987.08 473.058 986.006 472.475C984.933 471.892 984.105 471.063 983.521 469.99C982.961 468.917 982.681 467.657 982.681 466.21V460.54C982.681 459.093 982.961 457.845 983.521 456.795C984.105 455.722 984.933 454.893 986.006 454.31C987.08 453.703 988.351 453.4 989.821 453.4C991.268 453.4 992.516 453.703 993.566 454.31C994.64 454.893 995.456 455.722 996.016 456.795C996.6 457.845 996.891 459.093 996.891 460.54V463.9H984.956V466.21C984.956 467.82 985.376 469.08 986.216 469.99C987.056 470.9 988.258 471.355 989.821 471.355C991.081 471.355 992.108 471.087 992.901 470.55C993.718 469.99 994.266 469.208 994.546 468.205H996.856C996.553 469.792 995.771 471.052 994.511 471.985C993.275 472.895 991.711 473.35 989.821 473.35ZM994.616 462.325V460.54C994.616 458.93 994.196 457.67 993.356 456.76C992.54 455.827 991.361 455.36 989.821 455.36C988.258 455.36 987.056 455.815 986.216 456.725C985.376 457.635 984.956 458.907 984.956 460.54V462.045H994.931L994.616 462.325ZM988.421 450.425L992.131 445.525H994.721L990.836 450.425H988.421ZM1009.23 473.315C1008.02 473.315 1006.95 473.105 1006.01 472.685C1005.1 472.265 1004.37 471.682 1003.81 470.935C1003.25 470.165 1002.91 469.278 1002.79 468.275H1005.1C1005.27 469.138 1005.71 469.85 1006.43 470.41C1007.18 470.97 1008.11 471.25 1009.23 471.25H1011.23C1012.51 471.25 1013.49 470.958 1014.17 470.375C1014.87 469.768 1015.22 468.963 1015.22 467.96C1015.22 467.027 1014.93 466.257 1014.34 465.65C1013.76 465.02 1012.95 464.635 1011.93 464.495L1008.64 464.005C1006.89 463.748 1005.56 463.188 1004.65 462.325C1003.74 461.438 1003.28 460.237 1003.28 458.72C1003.28 457.087 1003.83 455.803 1004.93 454.87C1006.05 453.913 1007.6 453.435 1009.58 453.435H1010.98C1012.78 453.435 1014.23 453.867 1015.32 454.73C1016.44 455.593 1017.1 456.748 1017.28 458.195H1014.97C1014.83 457.402 1014.41 456.76 1013.71 456.27C1013.01 455.757 1012.1 455.5 1010.98 455.5H1009.58C1008.32 455.5 1007.34 455.792 1006.64 456.375C1005.97 456.935 1005.63 457.717 1005.63 458.72C1005.63 459.607 1005.91 460.307 1006.47 460.82C1007.03 461.31 1007.87 461.648 1008.99 461.835L1012.21 462.29C1013.93 462.547 1015.24 463.142 1016.13 464.075C1017.04 464.985 1017.49 466.21 1017.49 467.75C1017.49 469.453 1016.94 470.807 1015.85 471.81C1014.77 472.813 1013.23 473.315 1011.23 473.315H1009.23ZM1030.32 473.35C1028.2 473.35 1026.51 472.708 1025.25 471.425C1024.01 470.118 1023.39 468.357 1023.39 466.14V453.75H1025.7V466.14C1025.7 467.773 1026.11 469.045 1026.93 469.955C1027.75 470.842 1028.88 471.285 1030.32 471.285C1031.79 471.285 1032.94 470.842 1033.75 469.955C1034.59 469.045 1035.01 467.773 1035.01 466.14V453.75H1037.32V466.14C1037.32 468.357 1036.69 470.118 1035.43 471.425C1034.17 472.708 1032.47 473.35 1030.32 473.35ZM1042.74 473V453.75H1044.77V456.235H1045.15L1044.91 456.865C1044.88 455.815 1045.16 454.975 1045.75 454.345C1046.33 453.715 1047.12 453.4 1048.13 453.4C1049.15 453.4 1049.97 453.738 1050.58 454.415C1051.18 455.092 1051.53 456.048 1051.63 457.285L1051.14 456.235H1051.91L1051.59 456.865C1051.59 455.815 1051.87 454.975 1052.43 454.345C1053.01 453.715 1053.82 453.4 1054.85 453.4C1056.01 453.4 1056.92 453.832 1057.58 454.695C1058.23 455.535 1058.56 456.667 1058.56 458.09V473H1056.39V458.195C1056.39 457.285 1056.18 456.573 1055.76 456.06C1055.36 455.523 1054.8 455.255 1054.08 455.255C1053.33 455.255 1052.73 455.523 1052.29 456.06C1051.87 456.573 1051.66 457.285 1051.66 458.195V473H1049.63V458.195C1049.63 457.285 1049.42 456.573 1049 456.06C1048.6 455.523 1048.04 455.255 1047.32 455.255C1046.6 455.255 1046.03 455.523 1045.61 456.06C1045.19 456.573 1044.95 457.285 1044.91 458.195V473H1042.74ZM1070.97 473.35C1069.5 473.35 1068.22 473.058 1067.15 472.475C1066.08 471.892 1065.25 471.063 1064.67 469.99C1064.11 468.917 1063.83 467.657 1063.83 466.21V460.54C1063.83 459.093 1064.11 457.845 1064.67 456.795C1065.25 455.722 1066.08 454.893 1067.15 454.31C1068.22 453.703 1069.5 453.4 1070.97 453.4C1072.41 453.4 1073.66 453.703 1074.71 454.31C1075.78 454.893 1076.6 455.722 1077.16 456.795C1077.74 457.845 1078.04 459.093 1078.04 460.54V463.9H1066.1V466.21C1066.1 467.82 1066.52 469.08 1067.36 469.99C1068.2 470.9 1069.4 471.355 1070.97 471.355C1072.23 471.355 1073.25 471.087 1074.05 470.55C1074.86 469.99 1075.41 469.208 1075.69 468.205H1078C1077.7 469.792 1076.92 471.052 1075.66 471.985C1074.42 472.895 1072.86 473.35 1070.97 473.35ZM1075.76 462.325V460.54C1075.76 458.93 1075.34 457.67 1074.5 456.76C1073.68 455.827 1072.51 455.36 1070.97 455.36C1069.4 455.36 1068.2 455.815 1067.36 456.725C1066.52 457.635 1066.1 458.907 1066.1 460.54V462.045H1076.08L1075.76 462.325ZM1069.57 450.425L1073.28 445.525H1075.87L1071.98 450.425H1069.57ZM1090.06 469.57V462.43H1083.2V460.365H1090.06V453.225H1092.37V460.365H1099.23V462.43H1092.37V469.57H1090.06Z" fill="black"/>
<path d="M963.928 532.441V485.721H979.48C982.595 485.721 985.304 486.319 987.608 487.513C989.955 488.708 991.768 490.393 993.048 492.569C994.328 494.703 994.968 497.22 994.968 500.121C994.968 502.98 994.307 505.497 992.984 507.673C991.704 509.849 989.912 511.535 987.608 512.729C985.304 513.924 982.595 514.521 979.48 514.521H971.928V532.441H963.928ZM971.928 507.289H979.48C981.699 507.289 983.469 506.649 984.792 505.369C986.157 504.047 986.84 502.297 986.84 500.121C986.84 497.903 986.157 496.153 984.792 494.873C983.469 493.593 981.699 492.953 979.48 492.953H971.928V507.289ZM1038.05 532.441V485.721H1052.84C1055.95 485.721 1058.64 486.297 1060.9 487.449C1063.21 488.601 1065 490.223 1066.28 492.313C1067.56 494.361 1068.2 496.793 1068.2 499.609C1068.2 502.681 1067.41 505.391 1065.83 507.737C1064.29 510.084 1062.2 511.748 1059.56 512.729L1068.84 532.441H1059.88L1051.75 513.881H1046.05V532.441H1038.05ZM1046.05 506.841H1052.84C1055.1 506.841 1056.87 506.223 1058.15 504.985C1059.43 503.748 1060.07 502.041 1060.07 499.865C1060.07 497.647 1059.43 495.919 1058.15 494.681C1056.87 493.401 1055.1 492.761 1052.84 492.761H1046.05V506.841ZM1085.45 532.441V493.145H1073.23V485.721H1105.74V493.145H1093.52V532.441H1085.45ZM1112.5 532.441V485.721H1141.56V493.145H1120.37V505.625H1139.89V513.049H1120.5V532.441H1112.5ZM1163.68 533.081C1160.69 533.081 1158.09 532.527 1155.87 531.417C1153.69 530.265 1152.01 528.665 1150.81 526.617C1149.66 524.527 1149.08 522.073 1149.08 519.257V498.905C1149.08 496.089 1149.66 493.657 1150.81 491.609C1152.01 489.519 1153.69 487.919 1155.87 486.809C1158.09 485.657 1160.69 485.081 1163.68 485.081C1166.7 485.081 1169.31 485.657 1171.48 486.809C1173.66 487.919 1175.32 489.519 1176.48 491.609C1177.67 493.657 1178.27 496.068 1178.27 498.841V519.257C1178.27 522.073 1177.67 524.527 1176.48 526.617C1175.32 528.665 1173.66 530.265 1171.48 531.417C1169.31 532.527 1166.7 533.081 1163.68 533.081ZM1163.68 526.041C1165.85 526.041 1167.49 525.465 1168.6 524.313C1169.71 523.119 1170.27 521.433 1170.27 519.257V498.905C1170.27 496.687 1169.71 495.001 1168.6 493.849C1167.49 492.697 1165.85 492.121 1163.68 492.121C1161.5 492.121 1159.86 492.697 1158.75 493.849C1157.64 495.001 1157.08 496.687 1157.08 498.905V519.257C1157.08 521.433 1157.64 523.119 1158.75 524.313C1159.9 525.465 1161.54 526.041 1163.68 526.041ZM1188.16 532.441V485.721H1196.16V525.017H1216V532.441H1188.16ZM1224.43 532.441V525.401H1233.83V492.761H1224.43V485.721H1251.31V492.761H1241.9V525.401H1251.31V532.441H1224.43ZM1274.96 533.081C1271.97 533.081 1269.37 532.527 1267.15 531.417C1264.98 530.265 1263.29 528.665 1262.1 526.617C1260.94 524.527 1260.37 522.073 1260.37 519.257V498.905C1260.37 496.089 1260.94 493.657 1262.1 491.609C1263.29 489.519 1264.98 487.919 1267.15 486.809C1269.37 485.657 1271.97 485.081 1274.96 485.081C1277.99 485.081 1280.59 485.657 1282.77 486.809C1284.94 487.919 1286.61 489.519 1287.76 491.609C1288.95 493.657 1289.55 496.068 1289.55 498.841V519.257C1289.55 522.073 1288.95 524.527 1287.76 526.617C1286.61 528.665 1284.94 530.265 1282.77 531.417C1280.59 532.527 1277.99 533.081 1274.96 533.081ZM1274.96 526.041C1277.14 526.041 1278.78 525.465 1279.89 524.313C1281 523.119 1281.55 521.433 1281.55 519.257V498.905C1281.55 496.687 1281 495.001 1279.89 493.849C1278.78 492.697 1277.14 492.121 1274.96 492.121C1272.78 492.121 1271.14 492.697 1270.03 493.849C1268.92 495.001 1268.37 496.687 1268.37 498.905V519.257C1268.37 521.433 1268.92 523.119 1270.03 524.313C1271.18 525.465 1272.83 526.041 1274.96 526.041Z" fill="black"/>
<path d="M1024.03 589.689C1026.28 588.522 1028.02 586.878 1029.26 584.759C1030.49 582.639 1031.11 580.151 1031.11 577.296V497.145C1031.11 494.291 1030.49 491.804 1029.26 489.684C1028.02 487.565 1026.29 485.921 1024.07 484.752C1021.84 483.585 1019.17 483 1016.05 483C1013.02 483 1010.38 483.585 1008.1 484.752C1005.83 485.921 1004.08 487.565 1002.85 489.684C1001.62 491.804 1001 494.291 1001 497.145V577.296C1001 580.151 1001.62 582.639 1002.85 584.759C1004.08 586.878 1005.82 588.522 1008.07 589.689C1010.32 590.857 1012.98 591.442 1016.05 591.442C1019.12 591.442 1021.78 590.857 1024.03 589.689ZM1010.67 582.487C1009.33 581.189 1008.66 579.459 1008.66 577.296V497.145C1008.66 494.984 1009.33 493.253 1010.67 491.956C1012.01 490.657 1013.8 490.009 1016.05 490.009C1018.3 490.009 1020.1 490.657 1021.44 491.956C1022.78 493.253 1023.45 494.984 1023.45 497.145V577.296C1023.45 579.459 1022.78 581.189 1021.44 582.487C1020.1 583.784 1018.3 584.433 1016.05 584.433C1013.8 584.433 1012.01 583.784 1010.67 582.487Z" fill="#D2232A"/>
<path d="M1019.17 512.419C1019.95 511.598 1020.33 510.517 1020.33 509.175C1020.33 507.921 1019.95 506.904 1019.17 506.126C1018.39 505.347 1017.35 504.957 1016.05 504.957C1014.76 504.957 1013.72 505.347 1012.94 506.126C1012.16 506.904 1011.77 507.942 1011.77 509.239C1011.77 510.581 1012.17 511.652 1012.97 512.451C1013.77 513.253 1014.8 513.652 1016.05 513.652C1017.35 513.652 1018.39 513.242 1019.17 512.419Z" fill="black"/>
<g clip-path="url(#clip0_2_2)">
<path d="M1145.34 188.24C1144.37 188.24 1143.52 188.04 1142.8 187.64C1142.08 187.24 1141.52 186.68 1141.12 185.96C1140.72 185.24 1140.52 184.4 1140.52 183.44V175.04C1140.52 174.064 1140.72 173.216 1141.12 172.496C1141.52 171.776 1142.08 171.224 1142.8 170.84C1143.52 170.44 1144.37 170.24 1145.34 170.24C1146.34 170.24 1147.2 170.448 1147.94 170.864C1148.67 171.28 1149.24 171.864 1149.64 172.616C1150.04 173.368 1150.24 174.256 1150.24 175.28H1149.04C1149.04 174.048 1148.7 173.08 1148.03 172.376C1147.38 171.672 1146.48 171.32 1145.34 171.32C1144.22 171.32 1143.34 171.656 1142.68 172.328C1142.04 172.984 1141.72 173.888 1141.72 175.04V183.44C1141.72 184.592 1142.04 185.504 1142.68 186.176C1143.34 186.832 1144.22 187.16 1145.34 187.16C1146.5 187.16 1147.4 186.808 1148.06 186.104C1148.71 185.384 1149.04 184.416 1149.04 183.2H1150.24C1150.24 184.224 1150.04 185.112 1149.64 185.864C1149.24 186.616 1148.67 187.2 1147.94 187.616C1147.2 188.032 1146.34 188.24 1145.34 188.24ZM1169.19 188.24C1168.25 188.24 1167.42 188.048 1166.72 187.664C1166.01 187.264 1165.47 186.704 1165.09 185.984C1164.7 185.264 1164.51 184.416 1164.51 183.44V175.04C1164.51 174.064 1164.7 173.224 1165.09 172.52C1165.47 171.8 1166.01 171.24 1166.72 170.84C1167.42 170.44 1168.25 170.24 1169.19 170.24C1170.13 170.24 1170.96 170.44 1171.66 170.84C1172.37 171.24 1172.91 171.8 1173.29 172.52C1173.68 173.224 1173.87 174.064 1173.87 175.04V183.44C1173.87 184.416 1173.68 185.264 1173.29 185.984C1172.91 186.704 1172.37 187.264 1171.66 187.664C1170.97 188.048 1170.15 188.24 1169.19 188.24ZM1169.19 187.184C1170.29 187.184 1171.15 186.856 1171.76 186.2C1172.37 185.544 1172.67 184.624 1172.67 183.44V175.04C1172.67 173.856 1172.36 172.936 1171.73 172.28C1171.13 171.624 1170.28 171.296 1169.19 171.296C1168.1 171.296 1167.25 171.624 1166.62 172.28C1166.01 172.936 1165.71 173.856 1165.71 175.04V183.44C1165.71 184.624 1166.01 185.544 1166.62 186.2C1167.23 186.856 1168.09 187.184 1169.19 187.184ZM1188.62 188V170.48H1190.25L1196.69 186.68C1196.67 186.36 1196.65 186.008 1196.64 185.624C1196.62 185.24 1196.61 184.888 1196.59 184.568C1196.59 184.248 1196.59 184.032 1196.59 183.92V170.48H1197.74V188H1196.09L1189.73 171.8C1189.74 171.944 1189.75 172.16 1189.75 172.448C1189.75 172.72 1189.75 173.04 1189.75 173.408C1189.77 173.76 1189.77 174.144 1189.77 174.56V188H1188.62ZM1216.6 188V171.584H1211.41V170.48H1222.93V171.584H1217.8V188H1216.6ZM1235.59 188L1240.42 170.48H1241.91L1246.73 188H1245.48L1244.14 182.96H1238.14L1236.79 188H1235.59ZM1238.43 181.88H1243.85L1241.95 174.8C1241.73 173.936 1241.55 173.216 1241.4 172.64C1241.27 172.048 1241.19 171.664 1241.16 171.488C1241.13 171.664 1241.04 172.048 1240.9 172.64C1240.75 173.216 1240.57 173.936 1240.35 174.8L1238.43 181.88ZM1265.3 188.24C1264.32 188.24 1263.47 188.04 1262.75 187.64C1262.03 187.24 1261.47 186.68 1261.07 185.96C1260.67 185.24 1260.47 184.4 1260.47 183.44V175.04C1260.47 174.064 1260.67 173.216 1261.07 172.496C1261.47 171.776 1262.03 171.224 1262.75 170.84C1263.47 170.44 1264.32 170.24 1265.3 170.24C1266.29 170.24 1267.15 170.448 1267.89 170.864C1268.63 171.28 1269.19 171.864 1269.59 172.616C1269.99 173.368 1270.19 174.256 1270.19 175.28H1268.99C1268.99 174.048 1268.66 173.08 1267.99 172.376C1267.33 171.672 1266.43 171.32 1265.3 171.32C1264.18 171.32 1263.29 171.656 1262.63 172.328C1261.99 172.984 1261.67 173.888 1261.67 175.04V183.44C1261.67 184.592 1261.99 185.504 1262.63 186.176C1263.29 186.832 1264.18 187.16 1265.3 187.16C1266.45 187.16 1267.35 186.808 1268.01 186.104C1268.67 185.384 1268.99 184.416 1268.99 183.2H1270.19C1270.19 184.224 1269.99 185.112 1269.59 185.864C1269.19 186.616 1268.63 187.2 1267.89 187.616C1267.15 188.032 1266.29 188.24 1265.3 188.24ZM1288.57 188V171.584H1283.38V170.48H1294.9V171.584H1289.77V188H1288.57Z" fill="black"/>
<path d="M935.965 188L940.789 170.48H942.277L947.101 188H945.853L944.509 182.96H938.509L937.165 188H935.965ZM938.797 181.88H944.221L942.325 174.8C942.101 173.936 941.917 173.216 941.773 172.64C941.645 172.048 941.565 171.664 941.533 171.488C941.501 171.664 941.413 172.048 941.269 172.64C941.125 173.216 940.941 173.936 940.717 174.8L938.797 181.88ZM960.964 188V170.48H965.476C966.932 170.48 968.092 170.888 968.956 171.704C969.836 172.52 970.276 173.616 970.276 174.992C970.276 175.808 970.116 176.528 969.796 177.152C969.492 177.776 969.06 178.264 968.5 178.616C967.94 178.952 967.268 179.12 966.484 179.12V178.88C967.348 178.88 968.092 179.056 968.716 179.408C969.356 179.76 969.844 180.264 970.18 180.92C970.532 181.56 970.708 182.32 970.708 183.2C970.708 184.176 970.5 185.024 970.084 185.744C969.668 186.464 969.068 187.024 968.284 187.424C967.516 187.808 966.604 188 965.548 188H960.964ZM962.164 186.896H965.548C966.78 186.896 967.748 186.568 968.452 185.912C969.156 185.256 969.508 184.36 969.508 183.224C969.508 182.088 969.156 181.192 968.452 180.536C967.748 179.864 966.78 179.528 965.548 179.528H962.164V186.896ZM962.164 178.448H965.476C966.612 178.448 967.492 178.144 968.116 177.536C968.756 176.928 969.076 176.088 969.076 175.016C969.076 173.944 968.756 173.104 968.116 172.496C967.476 171.888 966.596 171.584 965.476 171.584H962.164V178.448ZM989.515 188.24C988.571 188.24 987.747 188.048 987.043 187.664C986.339 187.264 985.795 186.704 985.411 185.984C985.027 185.264 984.835 184.416 984.835 183.44V175.04C984.835 174.064 985.027 173.224 985.411 172.52C985.795 171.8 986.339 171.24 987.043 170.84C987.747 170.44 988.571 170.24 989.515 170.24C990.459 170.24 991.283 170.44 991.987 170.84C992.691 171.24 993.235 171.8 993.619 172.52C994.003 173.224 994.195 174.064 994.195 175.04V183.44C994.195 184.416 994.003 185.264 993.619 185.984C993.235 186.704 992.691 187.264 991.987 187.664C991.299 188.048 990.475 188.24 989.515 188.24ZM989.515 187.184C990.619 187.184 991.475 186.856 992.083 186.2C992.691 185.544 992.995 184.624 992.995 183.44V175.04C992.995 173.856 992.683 172.936 992.059 172.28C991.451 171.624 990.603 171.296 989.515 171.296C988.427 171.296 987.571 171.624 986.947 172.28C986.339 172.936 986.035 173.856 986.035 175.04V183.44C986.035 184.624 986.339 185.544 986.947 186.2C987.555 186.856 988.411 187.184 989.515 187.184ZM1013.53 188.24C1012.12 188.24 1010.99 187.808 1010.15 186.944C1009.31 186.064 1008.9 184.896 1008.9 183.44V170.48H1010.1V183.44C1010.1 184.608 1010.4 185.52 1011.01 186.176C1011.62 186.832 1012.46 187.16 1013.53 187.16C1014.6 187.16 1015.43 186.832 1016.03 186.176C1016.62 185.52 1016.91 184.608 1016.91 183.44V170.48H1018.11V183.44C1018.11 184.896 1017.7 186.064 1016.87 186.944C1016.03 187.808 1014.92 188.24 1013.53 188.24ZM1036.92 188V171.584H1031.74V170.48H1043.26V171.584H1038.12V188H1036.92Z" fill="black"/>
<path d="M661.307 188V170.48H666.227C667.267 170.48 668.163 170.68 668.915 171.08C669.667 171.464 670.243 172.024 670.643 172.76C671.059 173.48 671.267 174.336 671.267 175.328C671.267 176.592 670.907 177.648 670.187 178.496C669.483 179.344 668.515 179.856 667.283 180.032L671.387 188H669.947L665.987 180.08H662.507V188H661.307ZM662.507 179H666.227C667.395 179 668.323 178.664 669.011 177.992C669.715 177.304 670.067 176.4 670.067 175.28C670.067 174.144 669.715 173.248 669.011 172.592C668.323 171.92 667.395 171.584 666.227 171.584H662.507V179ZM685.537 188V170.48H694.897V171.584H686.737V178.328H694.057V179.408H686.737V186.896H694.897V188H685.537ZM713.968 188.24C712.896 188.24 711.96 188.048 711.16 187.664C710.376 187.28 709.768 186.736 709.336 186.032C708.904 185.328 708.688 184.504 708.688 183.56H709.888C709.888 184.648 710.256 185.52 710.992 186.176C711.744 186.832 712.736 187.16 713.968 187.16C715.168 187.16 716.104 186.864 716.776 186.272C717.464 185.664 717.808 184.824 717.808 183.752C717.808 182.824 717.544 182.016 717.016 181.328C716.488 180.64 715.768 180.16 714.856 179.888L712.84 179.288C711.688 178.936 710.784 178.352 710.128 177.536C709.488 176.704 709.168 175.72 709.168 174.584C709.168 173.688 709.36 172.92 709.744 172.28C710.144 171.624 710.704 171.12 711.424 170.768C712.16 170.416 713.016 170.24 713.992 170.24C715.464 170.24 716.624 170.656 717.472 171.488C718.336 172.304 718.768 173.424 718.768 174.848H717.568C717.568 173.776 717.24 172.92 716.584 172.28C715.928 171.64 715.056 171.32 713.968 171.32C712.848 171.32 711.968 171.6 711.328 172.16C710.688 172.72 710.368 173.496 710.368 174.488C710.368 175.352 710.616 176.112 711.112 176.768C711.608 177.408 712.28 177.864 713.128 178.136L715.144 178.76C716.328 179.128 717.264 179.752 717.952 180.632C718.656 181.512 719.008 182.528 719.008 183.68C719.008 184.608 718.8 185.416 718.384 186.104C717.984 186.776 717.408 187.304 716.656 187.688C715.904 188.056 715.008 188.24 713.968 188.24ZM733.519 188V170.48H742.879V171.584H734.719V178.328H742.039V179.408H734.719V186.896H742.879V188H733.519ZM756.261 188L761.085 170.48H762.573L767.397 188H766.149L764.805 182.96H758.805L757.461 188H756.261ZM759.093 181.88H764.517L762.621 174.8C762.397 173.936 762.213 173.216 762.069 172.64C761.941 172.048 761.861 171.664 761.829 171.488C761.797 171.664 761.709 172.048 761.565 172.64C761.421 173.216 761.237 173.936 761.013 174.8L759.093 181.88ZM781.26 188V170.48H786.18C787.22 170.48 788.116 170.68 788.868 171.08C789.62 171.464 790.196 172.024 790.596 172.76C791.012 173.48 791.22 174.336 791.22 175.328C791.22 176.592 790.86 177.648 790.14 178.496C789.436 179.344 788.468 179.856 787.236 180.032L791.34 188H789.9L785.94 180.08H782.46V188H781.26ZM782.46 179H786.18C787.348 179 788.276 178.664 788.964 177.992C789.668 177.304 790.02 176.4 790.02 175.28C790.02 174.144 789.668 173.248 788.964 172.592C788.276 171.92 787.348 171.584 786.18 171.584H782.46V179ZM809.954 188.24C808.978 188.24 808.13 188.04 807.41 187.64C806.69 187.24 806.13 186.68 805.73 185.96C805.33 185.24 805.13 184.4 805.13 183.44V175.04C805.13 174.064 805.33 173.216 805.73 172.496C806.13 171.776 806.69 171.224 807.41 170.84C808.13 170.44 808.978 170.24 809.954 170.24C810.946 170.24 811.81 170.448 812.546 170.864C813.282 171.28 813.85 171.864 814.25 172.616C814.65 173.368 814.85 174.256 814.85 175.28H813.65C813.65 174.048 813.314 173.08 812.642 172.376C811.986 171.672 811.09 171.32 809.954 171.32C808.834 171.32 807.946 171.656 807.29 172.328C806.65 172.984 806.33 173.888 806.33 175.04V183.44C806.33 184.592 806.65 185.504 807.29 186.176C807.946 186.832 808.834 187.16 809.954 187.16C811.106 187.16 812.01 186.808 812.666 186.104C813.322 185.384 813.65 184.416 813.65 183.2H814.85C814.85 184.224 814.65 185.112 814.25 185.864C813.85 186.616 813.282 187.2 812.546 187.616C811.81 188.032 810.946 188.24 809.954 188.24ZM829.241 188V170.48H830.441V178.352H837.161V170.48H838.361V188H837.161V179.456H830.441V188H829.241Z" fill="black"/>
<path d="M481.64 188V170.48H482.84V178.352H489.56V170.48H490.76V188H489.56V179.456H482.84V188H481.64ZM510.191 188.24C509.247 188.24 508.423 188.048 507.719 187.664C507.015 187.264 506.471 186.704 506.087 185.984C505.703 185.264 505.511 184.416 505.511 183.44V175.04C505.511 174.064 505.703 173.224 506.087 172.52C506.471 171.8 507.015 171.24 507.719 170.84C508.423 170.44 509.247 170.24 510.191 170.24C511.135 170.24 511.959 170.44 512.663 170.84C513.367 171.24 513.911 171.8 514.295 172.52C514.679 173.224 514.871 174.064 514.871 175.04V183.44C514.871 184.416 514.679 185.264 514.295 185.984C513.911 186.704 513.367 187.264 512.663 187.664C511.975 188.048 511.151 188.24 510.191 188.24ZM510.191 187.184C511.295 187.184 512.151 186.856 512.759 186.2C513.367 185.544 513.671 184.624 513.671 183.44V175.04C513.671 173.856 513.359 172.936 512.735 172.28C512.127 171.624 511.279 171.296 510.191 171.296C509.103 171.296 508.247 171.624 507.623 172.28C507.015 172.936 506.711 173.856 506.711 175.04V183.44C506.711 184.624 507.015 185.544 507.623 186.2C508.231 186.856 509.087 187.184 510.191 187.184ZM529.189 188V170.48H530.989L533.437 177.2C533.565 177.552 533.701 177.936 533.845 178.352C534.005 178.768 534.125 179.112 534.205 179.384C534.285 179.112 534.397 178.768 534.541 178.352C534.701 177.936 534.845 177.552 534.973 177.2L537.397 170.48H539.173V188H537.997V177.44C537.997 176.832 537.997 176.224 537.997 175.616C538.013 174.992 538.029 174.4 538.045 173.84C538.061 173.264 538.069 172.744 538.069 172.28C538.085 171.8 538.101 171.4 538.117 171.08L534.829 180.2H533.557L530.221 171.08C530.237 171.4 530.253 171.8 530.269 172.28C530.285 172.744 530.301 173.264 530.317 173.84C530.333 174.4 530.341 174.992 530.341 175.616C530.357 176.224 530.365 176.832 530.365 177.44V188H529.189ZM553.852 188V170.48H563.212V171.584H555.052V178.328H562.372V179.408H555.052V186.896H563.212V188H553.852Z" fill="black"/>
</g>
<path d="M583.107 490.4C581.134 490.4 579.441 490.08 578.027 489.44C576.614 488.773 575.521 487.84 574.747 486.64C573.974 485.413 573.587 483.96 573.587 482.28H577.867C577.867 483.613 578.334 484.667 579.267 485.44C580.201 486.187 581.494 486.56 583.147 486.56C584.694 486.56 585.907 486.187 586.787 485.44C587.667 484.693 588.107 483.667 588.107 482.36C588.107 481.267 587.801 480.32 587.187 479.52C586.601 478.72 585.747 478.173 584.627 477.88L580.947 476.8C578.814 476.187 577.161 475.147 575.987 473.68C574.841 472.187 574.267 470.413 574.267 468.36C574.267 466.76 574.627 465.36 575.347 464.16C576.067 462.96 577.094 462.027 578.427 461.36C579.761 460.693 581.334 460.36 583.147 460.36C585.814 460.36 587.947 461.08 589.547 462.52C591.174 463.96 592.001 465.893 592.027 468.32H587.707C587.707 467.04 587.294 466.04 586.467 465.32C585.667 464.573 584.534 464.2 583.067 464.2C581.654 464.2 580.547 464.547 579.747 465.24C578.947 465.907 578.547 466.853 578.547 468.08C578.547 469.173 578.841 470.12 579.427 470.92C580.041 471.72 580.907 472.28 582.027 472.6L585.747 473.72C587.881 474.307 589.521 475.347 590.667 476.84C591.814 478.333 592.387 480.12 592.387 482.2C592.387 483.827 592.001 485.267 591.227 486.52C590.454 487.747 589.374 488.707 587.987 489.4C586.601 490.067 584.974 490.4 583.107 490.4ZM595.892 490L603.332 460.8H609.012L616.452 490H612.092L610.332 482.6H602.052L600.292 490H595.892ZM602.852 479.04H609.492L607.492 470.6C607.145 469.107 606.852 467.813 606.612 466.72C606.399 465.6 606.252 464.84 606.172 464.44C606.092 464.84 605.945 465.6 605.732 466.72C605.519 467.813 605.225 469.093 604.852 470.56L602.852 479.04ZM621.116 490V460.8H638.276V464.64H625.356V472.92H636.876V476.72H625.356V486.16H638.276V490H621.116ZM644.461 490V486.16H650.341V464.64H644.461V460.8H660.621V464.64H654.741V486.16H660.621V490H644.461ZM667.045 490V460.8H675.205C677.125 460.8 678.792 461.173 680.205 461.92C681.618 462.64 682.712 463.667 683.485 465C684.285 466.333 684.685 467.907 684.685 469.72V481.04C684.685 482.827 684.285 484.4 683.485 485.76C682.712 487.12 681.618 488.173 680.205 488.92C678.792 489.64 677.125 490 675.205 490H667.045ZM671.365 486.08H675.205C676.805 486.08 678.058 485.64 678.965 484.76C679.898 483.853 680.365 482.613 680.365 481.04V469.72C680.365 468.173 679.898 466.96 678.965 466.08C678.058 465.173 676.805 464.72 675.205 464.72H671.365V486.08ZM722.214 490.4C720.24 490.4 718.547 490.08 717.134 489.44C715.72 488.773 714.627 487.84 713.854 486.64C713.08 485.413 712.694 483.96 712.694 482.28H716.974C716.974 483.613 717.44 484.667 718.374 485.44C719.307 486.187 720.6 486.56 722.254 486.56C723.8 486.56 725.014 486.187 725.894 485.44C726.774 484.693 727.214 483.667 727.214 482.36C727.214 481.267 726.907 480.32 726.294 479.52C725.707 478.72 724.854 478.173 723.734 477.88L720.054 476.8C717.92 476.187 716.267 475.147 715.094 473.68C713.947 472.187 713.374 470.413 713.374 468.36C713.374 466.76 713.734 465.36 714.454 464.16C715.174 462.96 716.2 462.027 717.534 461.36C718.867 460.693 720.44 460.36 722.254 460.36C724.92 460.36 727.054 461.08 728.654 462.52C730.28 463.96 731.107 465.893 731.134 468.32H726.814C726.814 467.04 726.4 466.04 725.574 465.32C724.774 464.573 723.64 464.2 722.174 464.2C720.76 464.2 719.654 464.547 718.854 465.24C718.054 465.907 717.654 466.853 717.654 468.08C717.654 469.173 717.947 470.12 718.534 470.92C719.147 471.72 720.014 472.28 721.134 472.6L724.854 473.72C726.987 474.307 728.627 475.347 729.774 476.84C730.92 478.333 731.494 480.12 731.494 482.2C731.494 483.827 731.107 485.267 730.334 486.52C729.56 487.747 728.48 488.707 727.094 489.4C725.707 490.067 724.08 490.4 722.214 490.4ZM745.278 490.4C743.465 490.4 741.891 490.067 740.558 489.4C739.251 488.707 738.238 487.72 737.518 486.44C736.825 485.133 736.478 483.613 736.478 481.88V468.92C736.478 467.16 736.825 465.64 737.518 464.36C738.238 463.08 739.251 462.107 740.558 461.44C741.891 460.747 743.465 460.4 745.278 460.4C747.091 460.4 748.651 460.747 749.958 461.44C751.291 462.107 752.305 463.08 752.998 464.36C753.718 465.64 754.078 467.147 754.078 468.88V481.88C754.078 483.613 753.718 485.133 752.998 486.44C752.305 487.72 751.291 488.707 749.958 489.4C748.651 490.067 747.091 490.4 745.278 490.4ZM745.278 486.56C746.745 486.56 747.851 486.16 748.598 485.36C749.371 484.533 749.758 483.373 749.758 481.88V468.92C749.758 467.4 749.371 466.24 748.598 465.44C747.851 464.64 746.745 464.24 745.278 464.24C743.838 464.24 742.731 464.64 741.958 465.44C741.185 466.24 740.798 467.4 740.798 468.92V481.88C740.798 483.373 741.185 484.533 741.958 485.36C742.731 486.16 743.838 486.56 745.278 486.56ZM759.822 490V460.8H768.982C770.822 460.8 772.422 461.16 773.782 461.88C775.142 462.573 776.196 463.56 776.942 464.84C777.716 466.12 778.102 467.627 778.102 469.36C778.102 471.307 777.596 473 776.582 474.44C775.596 475.853 774.249 476.853 772.542 477.44L778.502 490H773.582L768.262 478H764.142V490H759.822ZM764.142 474.2H768.982C770.422 474.2 771.569 473.773 772.422 472.92C773.276 472.04 773.702 470.88 773.702 469.44C773.702 467.947 773.276 466.773 772.422 465.92C771.569 465.067 770.422 464.64 768.982 464.64H764.142V474.2ZM783.007 490V460.8H787.327V472.96H791.207L797.167 460.8H801.887L795.007 474.8L802.207 490H797.367L791.127 476.84H787.327V490H783.007ZM806.231 490V460.8H810.551V472.88H819.111V460.8H823.431V490H819.111V476.88H810.551V490H806.231ZM829.936 490V486.16H835.816V464.64H829.936V460.8H846.096V464.64H840.216V486.16H846.096V490H829.936Z" fill="black"/>
<path d="M435 527V509.48H440.28C441.32 509.48 442.224 509.688 442.992 510.104C443.776 510.52 444.376 511.104 444.792 511.856C445.224 512.592 445.44 513.464 445.44 514.472C445.44 515.672 445.12 516.696 444.48 517.544C443.84 518.392 442.968 518.96 441.864 519.248L445.656 527H443.4L439.896 519.44H436.896V527H435ZM436.896 517.712H440.28C441.256 517.712 442.032 517.416 442.608 516.824C443.2 516.232 443.496 515.44 443.496 514.448C443.496 513.456 443.2 512.672 442.608 512.096C442.032 511.504 441.256 511.208 440.28 511.208H436.896V517.712ZM449.583 527V509.48H459.471V511.208H451.479V516.992H458.631V518.696H451.479V525.272H459.471V527H449.583ZM468.749 527.24C467.629 527.24 466.661 527.048 465.845 526.664C465.029 526.28 464.397 525.736 463.949 525.032C463.501 524.312 463.269 523.456 463.253 522.464H465.173C465.173 523.408 465.493 524.16 466.133 524.72C466.773 525.264 467.645 525.536 468.749 525.536C469.805 525.536 470.629 525.272 471.221 524.744C471.829 524.216 472.133 523.488 472.133 522.56C472.133 521.792 471.925 521.128 471.509 520.568C471.093 519.992 470.509 519.592 469.757 519.368L467.477 518.648C466.277 518.296 465.349 517.696 464.693 516.848C464.053 515.984 463.733 514.976 463.733 513.824C463.733 512.88 463.941 512.072 464.357 511.4C464.773 510.712 465.357 510.176 466.109 509.792C466.877 509.408 467.773 509.216 468.797 509.216C470.317 509.216 471.533 509.64 472.445 510.488C473.357 511.336 473.813 512.472 473.813 513.896H471.917C471.917 512.984 471.637 512.264 471.077 511.736C470.517 511.208 469.749 510.944 468.773 510.944C467.797 510.944 467.029 511.184 466.469 511.664C465.925 512.128 465.653 512.792 465.653 513.656C465.653 514.408 465.861 515.064 466.277 515.624C466.693 516.184 467.277 516.584 468.029 516.824L470.309 517.544C471.493 517.912 472.413 518.536 473.069 519.416C473.725 520.296 474.053 521.328 474.053 522.512C474.053 523.456 473.829 524.288 473.381 525.008C472.949 525.712 472.333 526.264 471.533 526.664C470.749 527.048 469.821 527.24 468.749 527.24ZM478.364 527V509.48H488.252V511.208H480.26V516.992H487.412V518.696H480.26V525.272H488.252V527H478.364ZM491.554 527L496.186 509.48H498.706L503.314 527H501.394L500.17 522.248H494.698L493.498 527H491.554ZM495.082 520.616H499.762L498.274 514.76C498.034 513.784 497.842 512.968 497.698 512.312C497.554 511.64 497.466 511.208 497.434 511.016C497.402 511.208 497.314 511.64 497.17 512.312C497.026 512.968 496.834 513.784 496.594 514.76L495.082 520.616ZM506.953 527V509.48H512.233C513.273 509.48 514.177 509.688 514.945 510.104C515.729 510.52 516.329 511.104 516.745 511.856C517.177 512.592 517.393 513.464 517.393 514.472C517.393 515.672 517.073 516.696 516.433 517.544C515.793 518.392 514.921 518.96 513.817 519.248L517.609 527H515.353L511.849 519.44H508.849V527H506.953ZM508.849 517.712H512.233C513.209 517.712 513.985 517.416 514.561 516.824C515.153 516.232 515.449 515.44 515.449 514.448C515.449 513.456 515.153 512.672 514.561 512.096C513.985 511.504 513.209 511.208 512.233 511.208H508.849V517.712ZM526.336 527.24C525.296 527.24 524.392 527.04 523.624 526.64C522.872 526.24 522.288 525.664 521.872 524.912C521.456 524.16 521.248 523.28 521.248 522.272V514.208C521.248 513.184 521.456 512.304 521.872 511.568C522.288 510.816 522.872 510.24 523.624 509.84C524.392 509.44 525.296 509.24 526.336 509.24C527.36 509.24 528.248 509.448 529 509.864C529.768 510.264 530.36 510.84 530.776 511.592C531.192 512.344 531.4 513.24 531.4 514.28H529.504C529.504 513.224 529.224 512.408 528.664 511.832C528.104 511.24 527.328 510.944 526.336 510.944C525.344 510.944 524.56 511.232 523.984 511.808C523.424 512.368 523.144 513.168 523.144 514.208V522.272C523.144 523.296 523.424 524.096 523.984 524.672C524.56 525.248 525.344 525.536 526.336 525.536C527.328 525.536 528.104 525.248 528.664 524.672C529.224 524.08 529.504 523.256 529.504 522.2H531.4C531.4 523.224 531.192 524.12 530.776 524.888C530.36 525.64 529.768 526.224 529 526.64C528.248 527.04 527.36 527.24 526.336 527.24ZM535.758 527V509.48H537.654V517.064H543.558V509.48H545.454V527H543.558V518.816H537.654V527H535.758ZM550.317 527V509.48H560.205V511.208H552.213V516.992H559.365V518.696H552.213V525.272H560.205V527H550.317ZM564.516 527V509.48H569.796C570.836 509.48 571.74 509.688 572.508 510.104C573.292 510.52 573.892 511.104 574.307 511.856C574.74 512.592 574.956 513.464 574.956 514.472C574.956 515.672 574.636 516.696 573.996 517.544C573.356 518.392 572.484 518.96 571.38 519.248L575.172 527H572.916L569.412 519.44H566.412V527H564.516ZM566.412 517.712H569.796C570.772 517.712 571.548 517.416 572.124 516.824C572.716 516.232 573.012 515.44 573.012 514.448C573.012 513.456 572.716 512.672 572.124 512.096C571.548 511.504 570.772 511.208 569.796 511.208H566.412V517.712ZM596.417 527.24C595.153 527.24 594.161 526.888 593.441 526.184C592.721 525.48 592.361 524.512 592.361 523.28V520.376C592.361 519.448 592.593 518.68 593.057 518.072C593.537 517.464 594.209 517.056 595.073 516.848L594.905 516.776C594.377 516.072 593.993 515.424 593.753 514.832C593.529 514.24 593.417 513.648 593.417 513.056C593.417 512.304 593.593 511.64 593.945 511.064C594.297 510.488 594.785 510.04 595.409 509.72C596.049 509.4 596.793 509.24 597.641 509.24C598.537 509.24 599.313 509.416 599.969 509.768C600.641 510.104 601.153 510.576 601.505 511.184C601.873 511.792 602.057 512.512 602.057 513.344H600.137C600.137 512.848 600.033 512.424 599.825 512.072C599.617 511.704 599.329 511.416 598.961 511.208C598.593 511 598.153 510.896 597.641 510.896C597.177 510.896 596.769 510.992 596.417 511.184C596.065 511.36 595.793 511.616 595.601 511.952C595.409 512.272 595.313 512.656 595.313 513.104C595.313 513.52 595.409 513.976 595.601 514.472C595.793 514.952 596.065 515.424 596.417 515.888L600.593 521.624L602.393 518.36H604.361L601.697 523.136L604.529 527H602.441L600.737 524.72C599.553 526.4 598.113 527.24 596.417 527.24ZM596.537 525.536C597.145 525.536 597.721 525.344 598.265 524.96C598.809 524.56 599.281 523.992 599.681 523.256L595.985 518.24C595.425 518.304 594.993 518.52 594.689 518.888C594.401 519.256 594.257 519.752 594.257 520.376V523.28C594.257 523.968 594.457 524.52 594.857 524.936C595.273 525.336 595.833 525.536 596.537 525.536ZM622.078 527V509.48H626.422C627.542 509.48 628.51 509.696 629.326 510.128C630.158 510.56 630.798 511.176 631.246 511.976C631.694 512.76 631.918 513.68 631.918 514.736V521.72C631.918 522.792 631.694 523.728 631.246 524.528C630.798 525.312 630.158 525.92 629.326 526.352C628.51 526.784 627.542 527 626.422 527H622.078ZM623.974 525.296H626.422C627.542 525.296 628.422 524.976 629.062 524.336C629.702 523.696 630.022 522.824 630.022 521.72V514.736C630.022 513.648 629.694 512.784 629.038 512.144C628.398 511.504 627.526 511.184 626.422 511.184H623.974V525.296ZM636.757 527V525.272H640.381V511.208H636.757V509.48H645.925V511.208H642.325V525.272H645.925V527H636.757ZM655.851 527.24C654.811 527.24 653.907 527.04 653.139 526.64C652.387 526.24 651.803 525.664 651.387 524.912C650.971 524.16 650.763 523.28 650.763 522.272V514.208C650.763 513.184 650.971 512.304 651.387 511.568C651.803 510.816 652.387 510.24 653.139 509.84C653.907 509.44 654.811 509.24 655.851 509.24C656.875 509.24 657.763 509.448 658.515 509.864C659.283 510.264 659.875 510.84 660.291 511.592C660.707 512.344 660.915 513.24 660.915 514.28H659.019C659.019 513.224 658.739 512.408 658.179 511.832C657.619 511.24 656.843 510.944 655.851 510.944C654.859 510.944 654.075 511.232 653.499 511.808C652.939 512.368 652.659 513.168 652.659 514.208V522.272C652.659 523.296 652.939 524.096 653.499 524.672C654.075 525.248 654.859 525.536 655.851 525.536C656.843 525.536 657.619 525.248 658.179 524.672C658.739 524.08 659.019 523.256 659.019 522.2V519.92H655.299V518.168H660.915V522.2C660.915 523.224 660.707 524.12 660.291 524.888C659.875 525.64 659.283 526.224 658.515 526.64C657.763 527.04 656.875 527.24 655.851 527.24ZM665.538 527V525.272H669.162V511.208H665.538V509.48H674.706V511.208H671.106V525.272H674.706V527H665.538ZM683.577 527V511.208H678.657V509.456H690.369V511.208H685.473V527H683.577ZM693.023 527L697.655 509.48H700.175L704.783 527H702.863L701.639 522.248H696.167L694.967 527H693.023ZM696.551 520.616H701.231L699.743 514.76C699.503 513.784 699.311 512.968 699.167 512.312C699.023 511.64 698.935 511.208 698.903 511.016C698.871 511.208 698.783 511.64 698.639 512.312C698.495 512.968 698.303 513.784 698.063 514.76L696.551 520.616ZM708.878 527V509.48H710.798V525.272H718.862V527H708.878ZM737.203 527V509.48H741.547C742.667 509.48 743.635 509.696 744.451 510.128C745.283 510.56 745.923 511.176 746.371 511.976C746.819 512.76 747.043 513.68 747.043 514.736V521.72C747.043 522.792 746.819 523.728 746.371 524.528C745.923 525.312 745.283 525.92 744.451 526.352C743.635 526.784 742.667 527 741.547 527H737.203ZM739.099 525.296H741.547C742.667 525.296 743.547 524.976 744.187 524.336C744.827 523.696 745.147 522.824 745.147 521.72V514.736C745.147 513.648 744.819 512.784 744.163 512.144C743.523 511.504 742.651 511.184 741.547 511.184H739.099V525.296ZM751.786 527V509.48H761.674V511.208H753.682V516.992H760.834V518.696H753.682V525.272H761.674V527H751.786ZM770.952 527.24C769.832 527.24 768.864 527.048 768.048 526.664C767.232 526.28 766.6 525.736 766.152 525.032C765.704 524.312 765.472 523.456 765.456 522.464H767.376C767.376 523.408 767.696 524.16 768.336 524.72C768.976 525.264 769.848 525.536 770.952 525.536C772.008 525.536 772.832 525.272 773.424 524.744C774.032 524.216 774.336 523.488 774.336 522.56C774.336 521.792 774.128 521.128 773.712 520.568C773.296 519.992 772.712 519.592 771.96 519.368L769.68 518.648C768.48 518.296 767.552 517.696 766.896 516.848C766.256 515.984 765.936 514.976 765.936 513.824C765.936 512.88 766.144 512.072 766.56 511.4C766.976 510.712 767.56 510.176 768.312 509.792C769.08 509.408 769.976 509.216 771 509.216C772.52 509.216 773.736 509.64 774.648 510.488C775.56 511.336 776.016 512.472 776.016 513.896H774.12C774.12 512.984 773.84 512.264 773.28 511.736C772.72 511.208 771.952 510.944 770.976 510.944C770 510.944 769.232 511.184 768.672 511.664C768.128 512.128 767.856 512.792 767.856 513.656C767.856 514.408 768.064 515.064 768.48 515.624C768.896 516.184 769.48 516.584 770.232 516.824L772.512 517.544C773.696 517.912 774.616 518.536 775.272 519.416C775.928 520.296 776.256 521.328 776.256 522.512C776.256 523.456 776.032 524.288 775.584 525.008C775.152 525.712 774.536 526.264 773.736 526.664C772.952 527.048 772.024 527.24 770.952 527.24ZM780.663 527V525.272H784.287V511.208H780.663V509.48H789.831V511.208H786.231V525.272H789.831V527H780.663ZM799.758 527.24C798.718 527.24 797.814 527.04 797.046 526.64C796.294 526.24 795.71 525.664 795.294 524.912C794.878 524.16 794.67 523.28 794.67 522.272V514.208C794.67 513.184 794.878 512.304 795.294 511.568C795.71 510.816 796.294 510.24 797.046 509.84C797.814 509.44 798.718 509.24 799.758 509.24C800.782 509.24 801.67 509.448 802.422 509.864C803.19 510.264 803.782 510.84 804.198 511.592C804.614 512.344 804.822 513.24 804.822 514.28H802.926C802.926 513.224 802.646 512.408 802.086 511.832C801.526 511.24 800.75 510.944 799.758 510.944C798.766 510.944 797.982 511.232 797.406 511.808C796.846 512.368 796.566 513.168 796.566 514.208V522.272C796.566 523.296 796.846 524.096 797.406 524.672C797.982 525.248 798.766 525.536 799.758 525.536C800.75 525.536 801.526 525.248 802.086 524.672C802.646 524.08 802.926 523.256 802.926 522.2V519.92H799.206V518.168H804.822V522.2C804.822 523.224 804.614 524.12 804.198 524.888C803.782 525.64 803.19 526.224 802.422 526.64C801.67 527.04 800.782 527.24 799.758 527.24ZM809.108 527V509.48H811.652L817.292 524.792C817.276 524.424 817.252 523.976 817.22 523.448C817.188 522.904 817.156 522.352 817.124 521.792C817.108 521.232 817.1 520.728 817.1 520.28V509.48H818.948V527H816.38L810.788 511.688C810.82 512.008 810.844 512.424 810.86 512.936C810.876 513.432 810.892 513.968 810.908 514.544C810.94 515.104 810.956 515.656 810.956 516.2V527H809.108ZM823.739 527V509.48H833.627V511.208H825.635V516.992H832.787V518.696H825.635V525.272H833.627V527H823.739ZM837.937 527V509.48H843.217C844.257 509.48 845.161 509.688 845.929 510.104C846.713 510.52 847.313 511.104 847.729 511.856C848.161 512.592 848.377 513.464 848.377 514.472C848.377 515.672 848.057 516.696 847.417 517.544C846.777 518.392 845.905 518.96 844.801 519.248L848.593 527H846.337L842.833 519.44H839.833V527H837.937ZM839.833 517.712H843.217C844.193 517.712 844.969 517.416 845.545 516.824C846.137 516.232 846.433 515.44 846.433 514.448C846.433 513.456 846.137 512.672 845.545 512.096C844.969 511.504 844.193 511.208 843.217 511.208H839.833V517.712Z" fill="#D2232A"/>
<path d="M503.962 559V541.48H505.762L508.21 548.2C508.338 548.552 508.474 548.936 508.618 549.352C508.778 549.768 508.898 550.112 508.978 550.384C509.058 550.112 509.17 549.768 509.314 549.352C509.474 548.936 509.618 548.552 509.746 548.2L512.17 541.48H513.946V559H512.77V548.44C512.77 547.832 512.77 547.224 512.77 546.616C512.786 545.992 512.802 545.4 512.818 544.84C512.834 544.264 512.842 543.744 512.842 543.28C512.858 542.8 512.874 542.4 512.89 542.08L509.602 551.2H508.33L504.994 542.08C505.01 542.4 505.026 542.8 505.042 543.28C505.058 543.744 505.074 544.264 505.09 544.84C505.106 545.4 505.114 545.992 505.114 546.616C505.13 547.224 505.138 547.832 505.138 548.44V559H503.962ZM522.865 559.24C522.321 559.24 521.889 559.08 521.569 558.76C521.265 558.424 521.113 557.984 521.113 557.44C521.113 556.896 521.265 556.472 521.569 556.168C521.889 555.848 522.321 555.688 522.865 555.688C523.409 555.688 523.833 555.848 524.137 556.168C524.457 556.472 524.617 556.896 524.617 557.44C524.617 557.984 524.457 558.424 524.137 558.76C523.833 559.08 523.409 559.24 522.865 559.24ZM531.208 559L536.032 541.48H537.52L542.344 559H541.096L539.752 553.96H533.752L532.408 559H531.208ZM534.04 552.88H539.464L537.568 545.8C537.344 544.936 537.16 544.216 537.016 543.64C536.888 543.048 536.808 542.664 536.776 542.488C536.744 542.664 536.656 543.048 536.512 543.64C536.368 544.216 536.184 544.936 535.96 545.8L534.04 552.88ZM550.686 559.24C550.142 559.24 549.71 559.08 549.39 558.76C549.086 558.424 548.934 557.984 548.934 557.44C548.934 556.896 549.086 556.472 549.39 556.168C549.71 555.848 550.142 555.688 550.686 555.688C551.23 555.688 551.654 555.848 551.958 556.168C552.278 556.472 552.438 556.896 552.438 557.44C552.438 557.984 552.278 558.424 551.958 558.76C551.654 559.08 551.23 559.24 550.686 559.24ZM577.739 559L572.939 541.48H574.211L577.763 554.68C577.955 555.368 578.115 556.024 578.243 556.648C578.371 557.256 578.467 557.72 578.531 558.04C578.595 557.72 578.691 557.256 578.819 556.648C578.963 556.024 579.131 555.368 579.323 554.68L582.899 541.48H584.075L579.275 559H577.739ZM588.098 559V557.896H591.842V542.56H588.098V541.456H596.738V542.56H593.042V557.896H596.738V559H588.098ZM606.449 559.24C605.377 559.24 604.441 559.048 603.641 558.664C602.857 558.28 602.249 557.736 601.817 557.032C601.385 556.328 601.169 555.504 601.169 554.56H602.369C602.369 555.648 602.737 556.52 603.473 557.176C604.225 557.832 605.217 558.16 606.449 558.16C607.649 558.16 608.585 557.864 609.257 557.272C609.945 556.664 610.289 555.824 610.289 554.752C610.289 553.824 610.025 553.016 609.497 552.328C608.969 551.64 608.249 551.16 607.337 550.888L605.321 550.288C604.169 549.936 603.265 549.352 602.609 548.536C601.969 547.704 601.649 546.72 601.649 545.584C601.649 544.688 601.841 543.92 602.225 543.28C602.625 542.624 603.185 542.12 603.905 541.768C604.641 541.416 605.497 541.24 606.473 541.24C607.945 541.24 609.105 541.656 609.953 542.488C610.817 543.304 611.249 544.424 611.249 545.848H610.049C610.049 544.776 609.721 543.92 609.065 543.28C608.409 542.64 607.537 542.32 606.449 542.32C605.329 542.32 604.449 542.6 603.809 543.16C603.169 543.72 602.849 544.496 602.849 545.488C602.849 546.352 603.097 547.112 603.593 547.768C604.089 548.408 604.761 548.864 605.609 549.136L607.625 549.76C608.809 550.128 609.745 550.752 610.433 551.632C611.137 552.512 611.489 553.528 611.489 554.68C611.489 555.608 611.281 556.416 610.865 557.104C610.465 557.776 609.889 558.304 609.137 558.688C608.385 559.056 607.489 559.24 606.449 559.24ZM620.263 559.24C618.855 559.24 617.727 558.808 616.879 557.944C616.047 557.064 615.631 555.896 615.631 554.44V541.48H616.831V554.44C616.831 555.608 617.135 556.52 617.743 557.176C618.351 557.832 619.191 558.16 620.263 558.16C621.335 558.16 622.167 557.832 622.759 557.176C623.351 556.52 623.647 555.608 623.647 554.44V541.48H624.847V554.44C624.847 555.896 624.431 557.064 623.599 557.944C622.767 558.808 621.655 559.24 620.263 559.24ZM628.582 559L633.406 541.48H634.894L639.718 559H638.47L637.126 553.96H631.126L629.782 559H628.582ZM631.414 552.88H636.838L634.942 545.8C634.718 544.936 634.534 544.216 634.39 543.64C634.262 543.048 634.182 542.664 634.15 542.488C634.118 542.664 634.03 543.048 633.886 543.64C633.742 544.216 633.558 544.936 633.334 545.8L631.414 552.88ZM643.741 559V541.48H644.941V557.896H653.461V559H643.741ZM676.026 559.24C675.05 559.24 674.202 559.04 673.482 558.64C672.762 558.24 672.202 557.68 671.802 556.96C671.402 556.24 671.202 555.4 671.202 554.44V546.04C671.202 545.064 671.402 544.216 671.802 543.496C672.202 542.776 672.762 542.224 673.482 541.84C674.202 541.44 675.05 541.24 676.026 541.24C677.018 541.24 677.882 541.448 678.618 541.864C679.354 542.28 679.922 542.864 680.322 543.616C680.722 544.368 680.922 545.256 680.922 546.28H679.722C679.722 545.048 679.386 544.08 678.714 543.376C678.058 542.672 677.162 542.32 676.026 542.32C674.906 542.32 674.018 542.656 673.362 543.328C672.722 543.984 672.402 544.888 672.402 546.04V554.44C672.402 555.592 672.722 556.504 673.362 557.176C674.018 557.832 674.906 558.16 676.026 558.16C677.178 558.16 678.082 557.808 678.738 557.104C679.394 556.384 679.722 555.416 679.722 554.2H680.922C680.922 555.224 680.722 556.112 680.322 556.864C679.922 557.616 679.354 558.2 678.618 558.616C677.882 559.032 677.018 559.24 676.026 559.24ZM689.792 559.24C688.848 559.24 688.024 559.048 687.32 558.664C686.616 558.264 686.072 557.704 685.688 556.984C685.304 556.264 685.112 555.416 685.112 554.44V546.04C685.112 545.064 685.304 544.224 685.688 543.52C686.072 542.8 686.616 542.24 687.32 541.84C688.024 541.44 688.848 541.24 689.792 541.24C690.736 541.24 691.56 541.44 692.264 541.84C692.968 542.24 693.512 542.8 693.896 543.52C694.28 544.224 694.472 545.064 694.472 546.04V554.44C694.472 555.416 694.28 556.264 693.896 556.984C693.512 557.704 692.968 558.264 692.264 558.664C691.576 559.048 690.752 559.24 689.792 559.24ZM689.792 558.184C690.896 558.184 691.752 557.856 692.36 557.2C692.968 556.544 693.272 555.624 693.272 554.44V546.04C693.272 544.856 692.96 543.936 692.336 543.28C691.728 542.624 690.88 542.296 689.792 542.296C688.704 542.296 687.848 542.624 687.224 543.28C686.616 543.936 686.312 544.856 686.312 546.04V554.44C686.312 555.624 686.616 556.544 687.224 557.2C687.832 557.856 688.688 558.184 689.792 558.184ZM698.711 559V541.48H700.511L702.959 548.2C703.087 548.552 703.223 548.936 703.367 549.352C703.527 549.768 703.647 550.112 703.727 550.384C703.807 550.112 703.919 549.768 704.063 549.352C704.223 548.936 704.367 548.552 704.495 548.2L706.919 541.48H708.695V559H707.519V548.44C707.519 547.832 707.519 547.224 707.519 546.616C707.535 545.992 707.551 545.4 707.567 544.84C707.583 544.264 707.591 543.744 707.591 543.28C707.607 542.8 707.623 542.4 707.639 542.08L704.351 551.2H703.079L699.743 542.08C699.759 542.4 699.775 542.8 699.791 543.28C699.807 543.744 699.823 544.264 699.839 544.84C699.855 545.4 699.863 545.992 699.863 546.616C699.879 547.224 699.887 547.832 699.887 548.44V559H698.711ZM712.622 559V541.48H714.422L716.87 548.2C716.998 548.552 717.134 548.936 717.278 549.352C717.438 549.768 717.558 550.112 717.638 550.384C717.718 550.112 717.83 549.768 717.974 549.352C718.134 548.936 718.278 548.552 718.406 548.2L720.83 541.48H722.606V559H721.43V548.44C721.43 547.832 721.43 547.224 721.43 546.616C721.446 545.992 721.462 545.4 721.478 544.84C721.494 544.264 721.502 543.744 721.502 543.28C721.518 542.8 721.534 542.4 721.55 542.08L718.262 551.2H716.99L713.654 542.08C713.67 542.4 713.686 542.8 713.702 543.28C713.718 543.744 713.734 544.264 713.75 544.84C713.766 545.4 713.774 545.992 713.774 546.616C713.79 547.224 713.798 547.832 713.798 548.44V559H712.622ZM731.548 559.24C730.14 559.24 729.012 558.808 728.164 557.944C727.332 557.064 726.916 555.896 726.916 554.44V541.48H728.116V554.44C728.116 555.608 728.42 556.52 729.028 557.176C729.636 557.832 730.476 558.16 731.548 558.16C732.62 558.16 733.452 557.832 734.044 557.176C734.636 556.52 734.932 555.608 734.932 554.44V541.48H736.132V554.44C736.132 555.896 735.716 557.064 734.884 557.944C734.052 558.808 732.94 559.24 731.548 559.24ZM740.875 559V541.48H742.507L748.939 557.68C748.923 557.36 748.907 557.008 748.891 556.624C748.875 556.24 748.859 555.888 748.843 555.568C748.843 555.248 748.843 555.032 748.843 554.92V541.48H749.995V559H748.339L741.979 542.8C741.995 542.944 742.003 543.16 742.003 543.448C742.003 543.72 742.003 544.04 742.003 544.408C742.019 544.76 742.027 545.144 742.027 545.56V559H740.875ZM755.026 559V557.896H758.77V542.56H755.026V541.456H763.666V542.56H759.97V557.896H763.666V559H755.026ZM773.4 559.24C772.424 559.24 771.576 559.04 770.856 558.64C770.136 558.24 769.576 557.68 769.176 556.96C768.776 556.24 768.576 555.4 768.576 554.44V546.04C768.576 545.064 768.776 544.216 769.176 543.496C769.576 542.776 770.136 542.224 770.856 541.84C771.576 541.44 772.424 541.24 773.4 541.24C774.392 541.24 775.256 541.448 775.992 541.864C776.728 542.28 777.296 542.864 777.696 543.616C778.096 544.368 778.296 545.256 778.296 546.28H777.096C777.096 545.048 776.76 544.08 776.088 543.376C775.432 542.672 774.536 542.32 773.4 542.32C772.28 542.32 771.392 542.656 770.736 543.328C770.096 543.984 769.776 544.888 769.776 546.04V554.44C769.776 555.592 770.096 556.504 770.736 557.176C771.392 557.832 772.28 558.16 773.4 558.16C774.552 558.16 775.456 557.808 776.112 557.104C776.768 556.384 777.096 555.416 777.096 554.2H778.296C778.296 555.224 778.096 556.112 777.696 556.864C777.296 557.616 776.728 558.2 775.992 558.616C775.256 559.032 774.392 559.24 773.4 559.24ZM781.599 559L786.423 541.48H787.911L792.735 559H791.487L790.143 553.96H784.143L782.799 559H781.599ZM784.431 552.88H789.855L787.959 545.8C787.735 544.936 787.551 544.216 787.407 543.64C787.279 543.048 787.199 542.664 787.167 542.488C787.135 542.664 787.047 543.048 786.903 543.64C786.759 544.216 786.575 544.936 786.351 545.8L784.431 552.88ZM800.502 559V542.584H795.318V541.48H806.838V542.584H801.702V559H800.502ZM810.668 559V557.896H814.412V542.56H810.668V541.456H819.308V542.56H815.612V557.896H819.308V559H810.668ZM828.899 559.24C827.955 559.24 827.131 559.048 826.427 558.664C825.723 558.264 825.179 557.704 824.795 556.984C824.411 556.264 824.219 555.416 824.219 554.44V546.04C824.219 545.064 824.411 544.224 824.795 543.52C825.179 542.8 825.723 542.24 826.427 541.84C827.131 541.44 827.955 541.24 828.899 541.24C829.843 541.24 830.667 541.44 831.371 541.84C832.075 542.24 832.619 542.8 833.003 543.52C833.387 544.224 833.579 545.064 833.579 546.04V554.44C833.579 555.416 833.387 556.264 833.003 556.984C832.619 557.704 832.075 558.264 831.371 558.664C830.683 559.048 829.859 559.24 828.899 559.24ZM828.899 558.184C830.003 558.184 830.859 557.856 831.467 557.2C832.075 556.544 832.379 555.624 832.379 554.44V546.04C832.379 544.856 832.067 543.936 831.443 543.28C830.835 542.624 829.987 542.296 828.899 542.296C827.811 542.296 826.955 542.624 826.331 543.28C825.723 543.936 825.419 544.856 825.419 546.04V554.44C825.419 555.624 825.723 556.544 826.331 557.2C826.939 557.856 827.795 558.184 828.899 558.184ZM838.249 559V541.48H839.881L846.313 557.68C846.297 557.36 846.281 557.008 846.265 556.624C846.249 556.24 846.233 555.888 846.217 555.568C846.217 555.248 846.217 555.032 846.217 554.92V541.48H847.369V559H845.713L839.353 542.8C839.369 542.944 839.377 543.16 839.377 543.448C839.377 543.72 839.377 544.04 839.377 544.408C839.393 544.76 839.401 545.144 839.401 545.56V559H838.249Z" fill="black"/>
<path d="M643.501 591V573.48H648.013C649.469 573.48 650.629 573.888 651.493 574.704C652.373 575.52 652.813 576.616 652.813 577.992C652.813 578.808 652.653 579.528 652.333 580.152C652.029 580.776 651.597 581.264 651.037 581.616C650.477 581.952 649.805 582.12 649.021 582.12V581.88C649.885 581.88 650.629 582.056 651.253 582.408C651.893 582.76 652.381 583.264 652.717 583.92C653.069 584.56 653.245 585.32 653.245 586.2C653.245 587.176 653.037 588.024 652.621 588.744C652.205 589.464 651.605 590.024 650.821 590.424C650.053 590.808 649.141 591 648.085 591H643.501ZM644.701 589.896H648.085C649.317 589.896 650.285 589.568 650.989 588.912C651.693 588.256 652.045 587.36 652.045 586.224C652.045 585.088 651.693 584.192 650.989 583.536C650.285 582.864 649.317 582.528 648.085 582.528H644.701V589.896ZM644.701 581.448H648.013C649.149 581.448 650.029 581.144 650.653 580.536C651.293 579.928 651.613 579.088 651.613 578.016C651.613 576.944 651.293 576.104 650.653 575.496C650.013 574.888 649.133 574.584 648.013 574.584H644.701V581.448ZM661.971 591.24C661.427 591.24 660.995 591.08 660.675 590.76C660.371 590.424 660.219 589.984 660.219 589.44C660.219 588.896 660.371 588.472 660.675 588.168C660.995 587.848 661.427 587.688 661.971 587.688C662.515 587.688 662.939 587.848 663.243 588.168C663.563 588.472 663.723 588.896 663.723 589.44C663.723 589.984 663.563 590.424 663.243 590.76C662.939 591.08 662.515 591.24 661.971 591.24ZM684.225 591L689.049 573.48H690.537L695.361 591H694.113L692.769 585.96H686.769L685.425 591H684.225ZM687.057 584.88H692.481L690.585 577.8C690.361 576.936 690.177 576.216 690.033 575.64C689.905 575.048 689.825 574.664 689.793 574.488C689.761 574.664 689.673 575.048 689.529 575.64C689.385 576.216 689.201 576.936 688.977 577.8L687.057 584.88ZM699.143 591V573.48H704.063C705.103 573.48 705.999 573.68 706.751 574.08C707.503 574.464 708.079 575.024 708.479 575.76C708.895 576.48 709.103 577.336 709.103 578.328C709.103 579.592 708.743 580.648 708.023 581.496C707.319 582.344 706.351 582.856 705.119 583.032L709.223 591H707.783L703.823 583.08H700.343V591H699.143ZM700.343 582H704.063C705.231 582 706.159 581.664 706.847 580.992C707.551 580.304 707.903 579.4 707.903 578.28C707.903 577.144 707.551 576.248 706.847 575.592C706.159 574.92 705.231 574.584 704.063 574.584H700.343V582ZM717.758 591.24C716.782 591.24 715.934 591.04 715.214 590.64C714.494 590.24 713.934 589.68 713.534 588.96C713.134 588.24 712.934 587.4 712.934 586.44V578.04C712.934 577.064 713.134 576.216 713.534 575.496C713.934 574.776 714.494 574.224 715.214 573.84C715.934 573.44 716.782 573.24 717.758 573.24C718.75 573.24 719.614 573.448 720.35 573.864C721.086 574.28 721.654 574.864 722.054 575.616C722.454 576.368 722.654 577.256 722.654 578.28H721.454C721.454 577.048 721.118 576.08 720.446 575.376C719.79 574.672 718.894 574.32 717.758 574.32C716.638 574.32 715.75 574.656 715.094 575.328C714.454 575.984 714.134 576.888 714.134 578.04V586.44C714.134 587.592 714.454 588.504 715.094 589.176C715.75 589.832 716.638 590.16 717.758 590.16C718.91 590.16 719.814 589.808 720.47 589.104C721.126 588.384 721.454 587.416 721.454 586.2H722.654C722.654 587.224 722.454 588.112 722.054 588.864C721.654 589.616 721.086 590.2 720.35 590.616C719.614 591.032 718.75 591.24 717.758 591.24ZM726.964 591V573.48H728.164V581.352H734.884V573.48H736.084V591H734.884V582.456H728.164V591H726.964ZM741.115 591V589.896H744.859V574.56H741.115V573.456H749.755V574.56H746.059V589.896H749.755V591H741.115ZM758.77 591V574.584H753.586V573.48H765.106V574.584H759.97V591H758.77ZM768.936 591V573.48H778.296V574.584H770.136V581.328H777.456V582.408H770.136V589.896H778.296V591H768.936ZM787.311 591.24C786.335 591.24 785.487 591.04 784.767 590.64C784.047 590.24 783.487 589.68 783.087 588.96C782.687 588.24 782.487 587.4 782.487 586.44V578.04C782.487 577.064 782.687 576.216 783.087 575.496C783.487 574.776 784.047 574.224 784.767 573.84C785.487 573.44 786.335 573.24 787.311 573.24C788.303 573.24 789.167 573.448 789.903 573.864C790.639 574.28 791.207 574.864 791.607 575.616C792.007 576.368 792.207 577.256 792.207 578.28H791.007C791.007 577.048 790.671 576.08 789.999 575.376C789.343 574.672 788.447 574.32 787.311 574.32C786.191 574.32 785.303 574.656 784.647 575.328C784.007 575.984 783.687 576.888 783.687 578.04V586.44C783.687 587.592 784.007 588.504 784.647 589.176C785.303 589.832 786.191 590.16 787.311 590.16C788.463 590.16 789.367 589.808 790.023 589.104C790.679 588.384 791.007 587.416 791.007 586.2H792.207C792.207 587.224 792.007 588.112 791.607 588.864C791.207 589.616 790.639 590.2 789.903 590.616C789.167 591.032 788.303 591.24 787.311 591.24ZM800.502 591V574.584H795.318V573.48H806.838V574.584H801.702V591H800.502ZM815.012 591.24C813.604 591.24 812.476 590.808 811.628 589.944C810.796 589.064 810.38 587.896 810.38 586.44V573.48H811.58V586.44C811.58 587.608 811.884 588.52 812.492 589.176C813.1 589.832 813.94 590.16 815.012 590.16C816.084 590.16 816.916 589.832 817.508 589.176C818.1 588.52 818.396 587.608 818.396 586.44V573.48H819.596V586.44C819.596 587.896 819.18 589.064 818.348 589.944C817.516 590.808 816.404 591.24 815.012 591.24ZM824.339 591V573.48H829.259C830.299 573.48 831.195 573.68 831.947 574.08C832.699 574.464 833.275 575.024 833.675 575.76C834.091 576.48 834.299 577.336 834.299 578.328C834.299 579.592 833.939 580.648 833.219 581.496C832.515 582.344 831.547 582.856 830.315 583.032L834.419 591H832.979L829.019 583.08H825.539V591H824.339ZM825.539 582H829.259C830.427 582 831.355 581.664 832.043 580.992C832.747 580.304 833.099 579.4 833.099 578.28C833.099 577.144 832.747 576.248 832.043 575.592C831.355 574.92 830.427 574.584 829.259 574.584H825.539V582ZM838.489 591V573.48H847.849V574.584H839.689V581.328H847.009V582.408H839.689V589.896H847.849V591H838.489Z" fill="black"/>
<path d="M902 597.999L902.938 450" stroke="black"/>
<defs>
<clipPath id="clip0_2_2">
<rect width="843" height="32" fill="white" transform="translate(479 163)"/>
</clipPath>
</defs>
</svg>
